<svg width="649" height="649" viewBox="0 0 649 649" fill="none" xmlns="http://www.w3.org/2000/svg">
<path d="M121.432 364C121.224 364 121.12 363.87 121.12 363.61L121.276 310.024C121.276 309.816 121.38 309.712 121.588 309.712H131.104C131.312 309.712 131.494 309.816 131.65 310.024L138.748 320.32L145.846 310.024C146.002 309.816 146.184 309.712 146.392 309.712H155.986C156.194 309.712 156.298 309.816 156.298 310.024L156.454 363.61C156.454 363.87 156.35 364 156.142 364H147.328C147.12 364 147.016 363.87 147.016 363.61L146.938 323.83L138.748 335.686L130.636 323.83L130.558 363.61C130.558 363.87 130.454 364 130.246 364H121.432ZM177.367 364.78C174.611 364.78 172.063 364.078 169.723 362.674C167.383 361.218 165.511 359.294 164.107 356.902C162.755 354.51 162.079 351.884 162.079 349.024L162.235 310.024C162.235 309.816 162.339 309.712 162.547 309.712H171.283C171.491 309.712 171.595 309.816 171.595 310.024V349.024C171.595 350.792 172.141 352.3 173.233 353.548C174.377 354.744 175.755 355.342 177.367 355.342C179.031 355.342 180.409 354.744 181.501 353.548C182.645 352.3 183.217 350.792 183.217 349.024V310.024C183.217 309.816 183.321 309.712 183.529 309.712H192.265C192.473 309.712 192.577 309.816 192.577 310.024L192.733 349.024C192.733 351.936 192.031 354.588 190.627 356.98C189.275 359.372 187.429 361.27 185.089 362.674C182.801 364.078 180.227 364.78 177.367 364.78ZM199.593 364C199.177 364 198.969 363.818 198.969 363.454L198.891 310.336C198.891 309.92 199.099 309.712 199.515 309.712H206.535L219.717 340.444L219.327 310.336C219.327 309.92 219.561 309.712 220.029 309.712H227.751C228.063 309.712 228.219 309.92 228.219 310.336L228.297 363.532C228.297 363.844 228.167 364 227.907 364H221.043L207.549 335.296L208.095 363.376C208.095 363.792 207.861 364 207.393 364H199.593ZM249.425 364.78C246.565 364.78 243.965 364.078 241.625 362.674C239.337 361.218 237.517 359.294 236.165 356.902C234.813 354.51 234.137 351.832 234.137 348.868L234.215 324.532C234.215 321.672 234.865 319.072 236.165 316.732C237.517 314.34 239.337 312.442 241.625 311.038C243.965 309.582 246.565 308.854 249.425 308.854C252.285 308.854 254.859 309.556 257.147 310.96C259.435 312.364 261.255 314.262 262.607 316.654C263.959 318.994 264.635 321.62 264.635 324.532V328.12C264.635 328.328 264.531 328.432 264.323 328.432H255.587C255.379 328.432 255.275 328.328 255.275 328.12V324.532C255.275 322.816 254.703 321.334 253.559 320.086C252.467 318.838 251.089 318.214 249.425 318.214C247.553 318.214 246.123 318.864 245.135 320.164C244.147 321.412 243.653 322.868 243.653 324.532V348.868C243.653 350.792 244.199 352.352 245.291 353.548C246.435 354.744 247.813 355.342 249.425 355.342C251.089 355.342 252.467 354.692 253.559 353.392C254.703 352.04 255.275 350.532 255.275 348.868V345.28C255.275 345.072 255.379 344.968 255.587 344.968H264.401C264.609 344.968 264.713 345.072 264.713 345.28V348.868C264.713 351.832 264.011 354.51 262.607 356.902C261.255 359.294 259.435 361.218 257.147 362.674C254.859 364.078 252.285 364.78 249.425 364.78ZM270.729 364C270.521 364 270.417 363.87 270.417 363.61L270.495 310.024C270.495 309.816 270.625 309.712 270.885 309.712H279.543C279.803 309.712 279.933 309.816 279.933 310.024L279.855 331.24H291.555V310.024C291.555 309.816 291.659 309.712 291.867 309.712H300.525C300.785 309.712 300.915 309.816 300.915 310.024L301.071 363.61C301.071 363.87 300.941 364 300.681 364H291.945C291.685 364 291.555 363.87 291.555 363.61V340.678H279.855V363.61C279.855 363.87 279.751 364 279.543 364H270.729ZM365.639 364C365.431 364 365.327 363.87 365.327 363.61L365.483 310.024C365.483 309.816 365.587 309.712 365.795 309.712H375.311C375.519 309.712 375.701 309.816 375.857 310.024L382.955 320.32L390.053 310.024C390.209 309.816 390.391 309.712 390.599 309.712H400.193C400.401 309.712 400.505 309.816 400.505 310.024L400.661 363.61C400.661 363.87 400.557 364 400.349 364H391.535C391.327 364 391.223 363.87 391.223 363.61L391.145 323.83L382.955 335.686L374.843 323.83L374.765 363.61C374.765 363.87 374.661 364 374.453 364H365.639ZM404.57 363.61L414.242 310.024C414.294 309.816 414.424 309.712 414.632 309.712H425.942C426.15 309.712 426.28 309.816 426.332 310.024L435.614 363.61C435.666 363.87 435.562 364 435.302 364H426.644C426.436 364 426.306 363.87 426.254 363.61L425.396 357.916H414.788L413.93 363.61C413.878 363.87 413.748 364 413.54 364H404.882C404.674 364 404.57 363.87 404.57 363.61ZM416.348 349.57H423.836L420.638 327.652L420.17 324.766L419.858 327.652L416.348 349.57ZM444.576 364C444.368 364 444.264 363.87 444.264 363.61V319.15H434.124C433.864 319.15 433.734 319.02 433.734 318.76L433.812 310.024C433.812 309.816 433.916 309.712 434.124 309.712H463.764C464.024 309.712 464.154 309.816 464.154 310.024V318.76C464.154 319.02 464.05 319.15 463.842 319.15H453.624L453.702 363.61C453.702 363.87 453.598 364 453.39 364H444.576ZM468.319 364C468.111 364 468.007 363.87 468.007 363.61L468.085 310.024C468.085 309.816 468.189 309.712 468.397 309.712H493.435C493.643 309.712 493.747 309.842 493.747 310.102V318.838C493.747 319.046 493.643 319.15 493.435 319.15H477.445V331.318H493.435C493.643 331.318 493.747 331.422 493.747 331.63L493.825 340.444C493.825 340.652 493.721 340.756 493.513 340.756H477.445V354.406H493.513C493.721 354.406 493.825 354.536 493.825 354.796V363.688C493.825 363.896 493.721 364 493.513 364H468.319ZM513.564 364.78C510.756 364.78 508.182 364.078 505.842 362.674C503.554 361.218 501.708 359.32 500.304 356.98C498.952 354.588 498.276 351.962 498.276 349.102V345.514C498.276 345.254 498.406 345.124 498.666 345.124H507.402C507.61 345.124 507.714 345.254 507.714 345.514V349.102C507.714 350.818 508.286 352.3 509.43 353.548C510.574 354.744 511.952 355.342 513.564 355.342C515.176 355.342 516.554 354.718 517.698 353.47C518.842 352.222 519.414 350.766 519.414 349.102C519.414 347.178 518.166 345.514 515.67 344.11C514.838 343.642 513.538 342.914 511.77 341.926C510.002 340.938 508.338 340.002 506.778 339.118C503.918 337.454 501.786 335.374 500.382 332.878C499.03 330.33 498.354 327.47 498.354 324.298C498.354 321.386 499.056 318.786 500.46 316.498C501.864 314.158 503.71 312.312 505.998 310.96C508.338 309.608 510.86 308.932 513.564 308.932C516.32 308.932 518.842 309.634 521.13 311.038C523.47 312.39 525.316 314.236 526.668 316.576C528.072 318.864 528.774 321.438 528.774 324.298V330.694C528.774 330.902 528.67 331.006 528.462 331.006H519.726C519.518 331.006 519.414 330.902 519.414 330.694L519.336 324.298C519.336 322.478 518.764 320.996 517.62 319.852C516.476 318.708 515.124 318.136 513.564 318.136C511.952 318.136 510.574 318.76 509.43 320.008C508.286 321.204 507.714 322.634 507.714 324.298C507.714 326.014 508.078 327.444 508.806 328.588C509.534 329.732 510.86 330.824 512.784 331.864C513.044 332.02 513.538 332.306 514.266 332.722C515.046 333.086 515.878 333.528 516.762 334.048C517.646 334.516 518.426 334.932 519.102 335.296C519.83 335.66 520.272 335.894 520.428 335.998C523.028 337.454 525.082 339.248 526.59 341.38C528.098 343.46 528.852 346.034 528.852 349.102C528.852 352.066 528.15 354.744 526.746 357.136C525.394 359.476 523.548 361.348 521.208 362.752C518.92 364.104 516.372 364.78 513.564 364.78Z" fill="white"/>
<path d="M353.5 299C352.749 299 352.028 299.426 351.497 300.184C350.965 300.942 350.667 301.97 350.667 303.042V325.109L347.833 327.817V303.042C347.833 301.97 347.535 300.942 347.003 300.184C346.472 299.426 345.751 299 345 299C344.249 299 343.528 299.426 342.997 300.184C342.465 300.942 342.167 301.97 342.167 303.042V327.817L339.333 325.109V303.042C339.333 301.97 339.035 300.942 338.503 300.184C337.972 299.426 337.251 299 336.5 299C335.749 299 335.028 299.426 334.497 300.184C333.965 300.942 333.667 301.97 333.667 303.042V327.292C333.669 327.957 333.787 328.612 334.009 329.197C334.232 329.782 334.552 330.28 334.942 330.646L342.167 337.558V375.792C342.167 376.864 342.465 377.892 342.997 378.65C343.528 379.408 344.249 379.833 345 379.833C345.751 379.833 346.472 379.408 347.003 378.65C347.535 377.892 347.833 376.864 347.833 375.792V337.558L355.058 330.646C355.448 330.28 355.768 329.782 355.991 329.197C356.213 328.612 356.331 327.957 356.333 327.292V303.042C356.333 301.97 356.035 300.942 355.503 300.184C354.972 299.426 354.251 299 353.5 299ZM325.167 299C321.409 299 317.806 301.129 315.149 304.919C312.493 308.709 311 313.849 311 319.208V343.458C311 344.53 311.299 345.558 311.83 346.316C312.361 347.074 313.082 347.5 313.833 347.5H322.333V375.792C322.333 376.864 322.632 377.892 323.163 378.65C323.695 379.408 324.415 379.833 325.167 379.833C325.918 379.833 326.639 379.408 327.17 378.65C327.701 377.892 328 376.864 328 375.792V303.042C328 301.97 327.701 300.942 327.17 300.184C326.639 299.426 325.918 299 325.167 299ZM322.333 339.417H316.667V319.208C316.666 316.7 317.21 314.253 318.225 312.204C319.24 310.156 320.675 308.607 322.333 307.77V339.417Z" fill="black"/>
</svg>
